HIERARCHY
ROOT Hips
{
  OFFSET 0.000000 0.000000 0.000000
  CHANNELS 6 Xposition Yposition Zposition Zrotation Xrotation Yrotation
  JOINT Spine
  {
    OFFSET 0.000000 10.000000 0.000000
    CHANNELS 3 Zrotation Xrotation Yrotation
    JOINT Chest
    {
      OFFSET 0.000000 15.000000 0.000000
      CHANNELS 3 Zrotation Xrotation Yrotation
      JOINT Neck
      {
        OFFSET 0.000000 15.000000 0.000000
        CHANNELS 3 Zrotation Xrotation Yrotation
        JOINT Head
        {
          OFFSET 0.000000 10.000000 0.000000
          CHANNELS 3 Zrotation Xrotation Yrotation
          End Site
          {
            OFFSET 0.0 0.0 0.0
          }
        }
      }
      JOINT LeftShoulder
      {
        OFFSET 20.000000 15.000000 0.000000
        CHANNELS 3 Zrotation Xrotation Yrotation
        JOINT LeftArm
        {
          OFFSET 15.000000 0.000000 0.000000
          CHANNELS 3 Zrotation Xrotation Yrotation
          JOINT LeftForeArm
          {
            OFFSET 25.000000 0.000000 0.000000
            CHANNELS 3 Zrotation Xrotation Yrotation
            JOINT LeftHand
            {
              OFFSET 20.000000 0.000000 0.000000
              CHANNELS 3 Zrotation Xrotation Yrotation
              End Site
              {
                OFFSET 0.0 0.0 0.0
              }
            }
          }
        }
      }
      JOINT RightShoulder
      {
        OFFSET -20.000000 15.000000 0.000000
        CHANNELS 3 Zrotation Xrotation Yrotation
        JOINT RightArm
        {
          OFFSET -15.000000 0.000000 0.000000
          CHANNELS 3 Zrotation Xrotation Yrotation
          JOINT RightForeArm
          {
            OFFSET -25.000000 0.000000 0.000000
            CHANNELS 3 Zrotation Xrotation Yrotation
            JOINT RightHand
            {
              OFFSET -20.000000 0.000000 0.000000
              CHANNELS 3 Zrotation Xrotation Yrotation
              End Site
              {
                OFFSET 0.0 0.0 0.0
              }
            }
          }
        }
      }
    }
  }
  JOINT LeftUpLeg
  {
    OFFSET 10.000000 -10.000000 0.000000
    CHANNELS 3 Zrotation Xrotation Yrotation
    JOINT LeftLeg
    {
      OFFSET 0.000000 -45.000000 0.000000
      CHANNELS 3 Zrotation Xrotation Yrotation
      JOINT LeftFoot
      {
        OFFSET 0.000000 -45.000000 0.000000
        CHANNELS 3 Zrotation Xrotation Yrotation
        JOINT LeftToeBase
        {
          OFFSET 0.000000 0.000000 10.000000
          CHANNELS 3 Zrotation Xrotation Yrotation
          End Site
          {
            OFFSET 0.0 0.0 0.0
          }
        }
      }
    }
  }
  JOINT RightUpLeg
  {
    OFFSET -10.000000 -10.000000 0.000000
    CHANNELS 3 Zrotation Xrotation Yrotation
    JOINT RightLeg
    {
      OFFSET 0.000000 -45.000000 0.000000
      CHANNELS 3 Zrotation Xrotation Yrotation
      JOINT RightFoot
      {
        OFFSET 0.000000 -45.000000 0.000000
        CHANNELS 3 Zrotation Xrotation Yrotation
        JOINT RightToeBase
        {
          OFFSET 0.000000 0.000000 10.000000
          CHANNELS 3 Zrotation Xrotation Yrotation
          End Site
          {
            OFFSET 0.0 0.0 0.0
          }
        }
      }
    }
  }
}
MOTION
Frames: 5
Frame Time: 0.033333
19.830848 0.126161 10.600459 0.000000 0.000000 0.000000 0.000000 0.000000 0.000000 0.000000 0.000000 0.000000 0.000000 0.000000 0.000000 0.000000 0.000000 0.000000 -67.158972 -12.479578 18.704634 73.955622 43.355277 55.660999 103.161523 15.184430 12.069492 103.161523 15.184430 12.069492 98.635739 -40.672040 -35.342476 -145.124097 92.030985 -36.054441 -151.991690 103.685552 -35.221438 -151.991690 103.685552 -35.221438 9.622095 -40.498057 3.556816 -17.010614 -48.211061 -7.656178 67.458931 114.131395 46.776588 67.458931 114.131395 46.776588 -29.830081 -10.061167 -2.686313 -20.512463 -42.633031 -8.077486 -39.003851 113.488001 -26.150083 -39.003851 113.488001 -26.150083
19.760135 0.126622 10.546682 0.000000 0.000000 0.000000 0.000000 0.000000 0.000000 0.000000 0.000000 0.000000 0.000000 0.000000 0.000000 0.000000 0.000000 0.000000 -66.023995 -12.154156 18.612234 75.069830 43.512333 54.898437 103.703164 15.705593 12.365808 103.703164 15.705593 12.365808 98.392418 -36.312281 -31.614057 -147.070121 85.573731 -30.598464 -154.108372 101.519562 -31.438265 -154.108372 101.519562 -31.438265 9.386923 -40.056401 3.428445 -18.256629 -47.331552 -8.056188 60.106837 111.781647 42.797721 60.106837 111.781647 42.797721 -28.682898 -7.560092 -1.935494 -21.752354 -40.142126 -8.031458 -41.718758 117.499616 -26.039252 -41.718758 117.499616 -26.039252
19.700001 0.126555 10.517116 0.000000 0.000000 0.000000 0.000000 0.000000 0.000000 0.000000 0.000000 0.000000 0.000000 0.000000 0.000000 0.000000 0.000000 0.000000 -65.224365 -11.682498 18.168592 75.577531 43.252167 54.162531 104.561484 16.063735 12.456819 104.561484 16.063735 12.456819 98.242367 -34.096257 -29.730457 -148.435863 86.154024 -29.606397 -155.113021 102.985693 -31.001294 -155.113021 102.985693 -31.001294 8.889702 -39.814851 3.224953 -19.089831 -46.659235 -8.295576 57.668220 111.692623 40.960291 57.668220 111.692623 40.960291 -28.004752 -5.913226 -1.475822 -22.352013 -39.071023 -8.019876 -44.184850 118.429428 -27.189235 -44.184850 118.429428 -27.189235
19.586367 0.059284 10.910916 0.000000 0.000000 0.000000 0.000000 0.000000 0.000000 0.000000 0.000000 0.000000 0.000000 0.000000 0.000000 0.000000 0.000000 0.000000 -66.251474 -11.477580 17.510769 74.486663 38.689994 49.575092 106.593377 13.093121 9.779376 106.593377 13.093121 9.779376 89.146431 -23.870712 -24.218503 -152.023676 57.496865 -15.563308 -155.746832 93.023520 -25.526002 -155.746832 93.023520 -25.526002 15.652655 -34.728028 4.922091 -8.955224 -48.083391 -4.001460 76.497656 116.651267 51.874626 76.497656 116.651267 51.874626 -23.060079 -4.706606 -0.960658 -23.851710 -41.075199 -9.048103 -54.133586 119.834578 -32.978278 -54.133586 119.834578 -32.978278
19.707391 0.061490 10.943435 0.000000 0.000000 0.000000 0.000000 0.000000 0.000000 0.000000 0.000000 0.000000 0.000000 0.000000 0.000000 0.000000 0.000000 0.000000 -68.663235 -14.258908 20.756423 74.889678 43.841977 55.443369 106.226852 14.296083 10.752902 106.226852 14.296083 10.752902 90.338354 -22.267309 -22.139447 -151.736512 63.644801 -17.760354 -154.369203 96.406122 -28.551555 -154.369203 96.406122 -28.551555 17.858733 -36.850896 5.992793 -6.775163 -48.465806 -3.052393 79.835913 120.341305 51.256897 79.835913 120.341305 51.256897 -20.745175 -4.795584 -0.878278 -19.922459 -48.576392 -9.063139 -40.141731 103.896862 -31.919947 -40.141731 103.896862 -31.919947
